#!OML:ASF I:\golf\golf\golf 2\Subject 1\2002-09-07\Subject1.ASF
:FULLY-SPECIFIED
:DEGREES
355
root -6.68862 18.0628 0.300589 -15.7707 78.9243 -36.6165
lowerback 3.92948 -10.1503 -5.55527
upperback 3.77734 -13.6943 4.58732
thorax 4.24452 -7.14864 7.586
lowerneck -12.5726 13.9858 3.49407
upperneck 20.1571 22.6383 -14.7732
head 10.7772 9.32448 -2.45482
rclavicle 2.06736e-014 -1.11319e-014
rhumerus 12.5673 -20.1894 -70.9979
rradius 95.5438
rwrist -32.0255
rhand -63.5234 34.4089
rfingers 7.12502
rthumb -35.4993 7.97093
lclavicle 2.06736e-014 -1.11319e-014
lhumerus 93.8618 -57.0022 52.5859
lradius 25.6615
lwrist -4.41009
lhand -13.0533 12.5565
lfingers 7.12502
lthumb -166.958 -137.871
rfemur -33.3901 5.54531 12.2811
rtibia 23.2621
rfoot -2.5372 -8.24733
rtoes -13.1953
lfemur -28.8959 15.5401 -7.72177
ltibia 24.932
lfoot -7.02155 8.76816
ltoes -18.4784
356
root -6.69269 18.0716 0.211319 -21.7765 80.7874 -42.5079
lowerback 3.66196 -10.1288 -5.05789
upperback 3.92641 -13.6453 4.86225
thorax 4.49431 -7.12109 7.55068
lowerneck -12.7981 13.3556 3.90244
upperneck 20.5917 21.8155 -14.9518
head 10.9671 8.92763 -2.69654
rclavicle 2.46493e-014 2.70347e-014
rhumerus 11.1345 -19.8155 -71.5345
rradius 94.7534
rwrist -33.3462
rhand -63.9174 34.2179
rfingers 7.12502
rthumb -35.8727 7.87022
lclavicle 2.46493e-014 2.70347e-014
lhumerus 92.2686 -57.9417 53.2667
lradius 25.2044
lwrist -4.04181
lhand -12.6408 13.3616
lfingers 7.12502
lthumb -166.561 -137.092
rfemur -32.7361 4.98799 11.6838
rtibia 23.2685
rfoot -2.48373 -9.54805
rtoes -13.945
lfemur -29.4315 14.411 -8.06806
ltibia 24.7626
lfoot -7.24543 7.45513
ltoes -17.306
357
root -6.6959 18.0834 0.12411 -31.0888 82.6407 -51.7235
lowerback 3.30322 -10.0221 -4.54824
upperback 4.01814 -13.4821 5.03869
thorax 4.68431 -7.0264 7.40613
lowerneck -12.8971 12.5928 4.66596
upperneck 21.155 20.7393 -15.0974
head 11.1802 8.44947 -3.04023
rclavicle -1.4392e-013 1.43125e-014
rhumerus 9.38746 -19.8673 -72.0827
rradius 93.8154
rwrist -35.0719
rhand -63.9897 36.653
rfingers 7.12502
rthumb -35.9412 10.322
lclavicle -1.4392e-013 1.43125e-014
lhumerus 90.4546 -59.3121 54.1096
lradius 24.8416
lwrist -3.50716
lhand -11.9397 14.2996
lfingers 7.12502
lthumb -165.885 -136.2
rfemur -31.9923 4.30571 11.0935
rtibia 23.213
rfoot -2.20602 -10.7971
rtoes -15.1868
lfemur -30.1328 13.3824 -8.51658
ltibia 24.7634
lfoot -7.32534 5.89379
ltoes -16.2245
358
root -6.69605 18.0968 0.0378985 -47.1336 84.1553 -67.6925
lowerback 2.85917 -10.3145 -3.76628
upperback 4.21685 -13.8625 5.57417
thorax 5.16341 -7.21129 7.42138
lowerneck -13.9499 12.1211 3.66322
upperneck 21.6847 20.3307 -14.8028
head 11.3922 8.13228 -2.80154
rclavicle -2.03555e-013 4.69132e-014
rhumerus 8.64097 -18.4306 -72.5855
rradius 92.6387
rwrist -36.4527
rhand -64.0563 36.326
rfingers 7.12502
rthumb -36.0042 10.0105
lclavicle -2.03555e-013 4.69132e-014
lhumerus 86.9953 -59.4274 56.7681
lradius 24.2813
lwrist -3.22241
lhand -11.4146 15.2706
lfingers 7.12502
lthumb -165.379 -135.265
rfemur -31.1793 3.68583 10.5916
rtibia 23.1592
rfoot -1.95858 -12.1625
rtoes -15.1527
lfemur -30.9478 12.8681 -9.17293
ltibia 24.8812
lfoot -7.26229 4.04267
ltoes -19.5883
359
root -6.69245 18.1181 -0.0461955 -72.5369 84.8633 -92.9355
lowerback 2.38282 -10.4175 -3.03312
upperback 4.29115 -13.9965 6.01688
thorax 5.4706 -7.26041 7.39376
lowerneck -14.2198 11.4447 3.55735
upperneck 22.2162 19.4878 -14.7013
head 11.53 7.71775 -2.88842
rclavicle -3.85642e-014 -1.82882e-014
rhumerus 7.02672 -17.1064 -72.6573
rradius 91.5161
rwrist -37.7561
rhand -64.4235 34.059
rfingers 7.12502
rthumb -36.352 7.82976
lclavicle -3.85642e-014 -1.82882e-014
lhumerus 83.9256 -60.183 58.7072
lradius 23.7784
lwrist -2.97969
lhand -11.528 16.323
lfingers 7.12502
lthumb -165.488 -134.205
rfemur -30.243 3.28891 10.1507
rtibia 23.2384
rfoot -2.15944 -13.8365
rtoes -13.4239
lfemur -31.6265 12.5804 -9.8955
ltibia 24.9589
lfoot -7.45135 2.03036
ltoes -25.4345
360
root -6.68797 18.1347 -0.126649 -101.181 84.3452 -121.302
lowerback 1.93146 -10.2332 -2.38054
upperback 4.26082 -13.744 6.22242
thorax 5.54148 -7.10202 7.21294
lowerneck -13.8108 10.4537 4.63995
upperneck 22.8543 17.9908 -14.814
head 11.6396 7.12207 -3.39117
rclavicle -5.4467e-014 1.98785e-014
rhumerus 4.4361 -16.7586 -72.854
rradius 90.4802
rwrist -39.2096
rhand -64.8723 32.3276
rfingers 7.12502
rthumb -36.7769 6.20576
lclavicle -5.4467e-014 1.98785e-014
lhumerus 81.4378 -61.9653 59.7504
lradius 23.275
lwrist -2.66154
lhand -11.7511 17.1759
lfingers 7.12502
lthumb -165.703 -133.336
rfemur -29.181 3.08651 9.67054
rtibia 23.5357
rfoot -2.80594 -15.7616
rtoes -10.6597
lfemur -32.0599 11.9383 -10.4278
ltibia 24.8176
lfoot -7.79176 0.0154307
ltoes -27.4813
361
root -6.68118 18.1334 -0.205082 -122.411 82.8148 -142.25
lowerback 1.28902 -10.2148 -1.42297
upperback 4.56679 -13.7305 6.50599
thorax 6.07071 -7.05364 6.86969
lowerneck -15.0354 9.60538 4.3868
upperneck 23.6619 16.8946 -14.4651
head 12.0034 6.54447 -3.37427
rclavicle -7.59357e-014 1.82882e-014
rhumerus 3.00269 -16.3178 -73.6677
rradius 89.2439
rwrist -40.743
rhand -64.9727 30.362
rfingers 7.12502
rthumb -36.8718 4.26454
lclavicle -7.59357e-014 1.82882e-014
lhumerus 79.4379 -62.7851 60.4007
lradius 22.6719
lwrist -2.40383
lhand -11.6866 17.9482
lfingers 7.12502
lthumb -165.641 -132.568
rfemur -28.1508 2.69332 9.14206
rtibia 24.0533
rfoot -3.48953 -17.4476
rtoes -8.23577
lfemur -32.1973 10.7574 -10.7798
ltibia 24.3394
lfoot -7.95129 -1.88421
ltoes -25.7241
